<svg xmlns="http://www.w3.org/2000/svg" viewBox="0 0 455.36 433.81"><defs><style>.cls-1{fill:#9feadd;}</style></defs><title>gamestopia logo AQUA </title><g id="Capa_2" data-name="Capa 2"><g id="Capa_1-2" data-name="Capa 1"><path class="cls-1" d="M0,33Q0,17.64,10.15,8.82T41.51,0A94.76,94.76,0,0,1,66.8,3.3a2.37,2.37,0,0,1,1.72,2.29V15.84a2.33,2.33,0,0,1-3,2.22,87.58,87.58,0,0,0-24-3.33q-13.83,0-19.75,4.8t-5.91,14.4v85.93q0,18.08,21.42,18.07,13,0,19.09-4a2.31,2.31,0,0,0,1-2V79.8a2.35,2.35,0,0,1,2.35-2.35H70.86a2.35,2.35,0,0,1,2.35,2.35v62.08A2.4,2.4,0,0,1,72,144a69.38,69.38,0,0,1-33.35,8.24Q0,152.22,0,120.53Z"/><path class="cls-1" d="M117.65,23q37.93,0,37.94,32.36v93.41a2.34,2.34,0,0,1-2.34,2.34H142.76a2.35,2.35,0,0,1-2.35-2.34v-2a2.33,2.33,0,0,0-3.69-1.89A40,40,0,0,1,113.19,152q-31,0-31-30.58v-7.14q0-23.22,27-30.8l29.53-8.23A2.35,2.35,0,0,0,140.41,73V55.35q-.22-9.15-5.13-13.39t-19.75-4.24a82.2,82.2,0,0,0-24.27,3.45A2.35,2.35,0,0,1,88.19,39V29a2.37,2.37,0,0,1,1.64-2.27A95.42,95.42,0,0,1,117.65,23ZM97.56,115v6.69c0,6,1.41,10.35,4.24,13.17s8.18,4.24,16.07,4.24q11.32,0,21.42-8a2.41,2.41,0,0,0,.9-1.88V91.7a2.35,2.35,0,0,0-3-2.26l-22.46,6.31q-10.05,2.91-13.62,7.14T97.56,115Z"/><path class="cls-1" d="M227.8,31.49a2.37,2.37,0,0,0,2.83.41q14.6-8.25,29-8.24,15.17,0,23.21,7.7t8,21.76v95.64a2.34,2.34,0,0,1-2.34,2.34H277.15a2.35,2.35,0,0,1-2.35-2.34V57.13c0-10.73-9.07-19.53-19.77-18.59A46.55,46.55,0,0,0,236,44.83a2.33,2.33,0,0,0-1.13,2.5,34,34,0,0,1,.68,7.35v94.08a2.34,2.34,0,0,1-2.34,2.34H222a2.35,2.35,0,0,1-2.35-2.34V54.68q0-16.29-16.51-16.29-9.9,0-21.37,5.16a2.4,2.4,0,0,0-1.4,2.17v103a2.34,2.34,0,0,1-2.34,2.34H166.89a2.35,2.35,0,0,1-2.35-2.34V26.45a2.35,2.35,0,0,1,2.35-2.34h10.49a2.34,2.34,0,0,1,2.34,2.34h0a2.35,2.35,0,0,0,3.22,2.17q13-5,22.9-5Q219.88,23.66,227.8,31.49Z"/><path class="cls-1" d="M299.83,120.3v-62q0-15.84,9-25.33t27.34-9.49q18.3,0,27.12,9.49t8.81,25.33V94.74a2.35,2.35,0,0,1-2.34,2.35h-52a2.34,2.34,0,0,0-2.34,2.34v20.2q0,10.05,6.25,15t19.42,4.91a97.48,97.48,0,0,0,24.28-3.22,2.34,2.34,0,0,1,3,2.24v9.93a2.35,2.35,0,0,1-1.68,2.27,90.34,90.34,0,0,1-24.88,3.06Q299.82,153.78,299.83,120.3Zm18-36.38h36.83A2.34,2.34,0,0,0,357,81.58V58.25q0-21-20.75-21t-20.76,21V81.58A2.34,2.34,0,0,0,317.79,83.92Z"/><path class="cls-1" d="M383.92,54q0-15.61,8.93-23.32T422.09,23a83.61,83.61,0,0,1,23.07,3.28,2.38,2.38,0,0,1,1.7,2.29v9.73a2.34,2.34,0,0,1-3.06,2.21,73.88,73.88,0,0,0-21.49-3q-13.4,0-18.08,3.9t-4.69,13.06v5.8q0,7.16,2.8,10.94t10.37,7.14l19.2,9.38Q452,97.54,452,115v6q0,31.26-40.4,31.25a93.42,93.42,0,0,1-25.09-3.07,2.37,2.37,0,0,1-1.7-2.28v-9.75a2.35,2.35,0,0,1,3.05-2.23,80.62,80.62,0,0,0,22.73,3q14.18,0,19.87-4.35t5.69-12.83v-4.46q0-6.26-2.9-9.71T421.86,99.1L402.67,90Q383.92,81,383.92,61.6Z"/><path class="cls-1" d="M106.86,166.65v15.59a2.35,2.35,0,0,1-2.35,2.34H67.36A2.35,2.35,0,0,0,65,186.93V378.25a2.35,2.35,0,0,1-2.35,2.34H44.19a2.35,2.35,0,0,1-2.35-2.34V186.93a2.35,2.35,0,0,0-2.34-2.35H2.35A2.35,2.35,0,0,1,0,182.24V166.65a2.35,2.35,0,0,1,2.35-2.34H104.51A2.35,2.35,0,0,1,106.86,166.65Z"/><path class="cls-1" d="M77.42,245.57q0-22.84,12.87-36.37t39.27-13.51q26.38,0,39.26,13.51t12.88,36.37v89.8q0,22.86-12.88,36.37t-39.26,13.52q-26.4,0-39.27-13.52T77.42,335.37Zm81.75.33q0-29.94-29.61-29.94T100,245.9v89.15q0,30.26,29.61,30.26t29.61-30.26Z"/><path class="cls-1" d="M216.09,174a2.37,2.37,0,0,0,3.29,2.17q19.92-8.07,36.78-8.07,18.24,0,30.14,11.24t11.89,31.76l.16,125.63q0,22.8-13.19,35.67t-35,12.87H219.6a2.37,2.37,0,0,0-2.37,2.38v43.79a2.38,2.38,0,0,1-2.37,2.38H196.47a2.38,2.38,0,0,1-2.37-2.38l-.17-260.32a2.38,2.38,0,0,1,2.38-2.37h17.41a2.37,2.37,0,0,1,2.37,2.37Zm58.64,39.39q0-23.79-24.11-23.79-15,0-32.15,7.82a2.41,2.41,0,0,0-1.4,2.19l.16,162.11a2.37,2.37,0,0,0,2.37,2.37h25q30.3,0,30.3-29Z"/><path class="cls-1" d="M322.77,198.06q-14.17,0-14.17-15t14.17-15q14.18,0,14.17,15T322.77,198.06Zm-9.19,22.16H332a2.37,2.37,0,0,1,2.38,2.37v161.6a2.38,2.38,0,0,1-2.38,2.38H313.58a2.38,2.38,0,0,1-2.37-2.38V222.59A2.37,2.37,0,0,1,313.58,220.22Z"/><path class="cls-1" d="M400,172.07q55.38,0,55.39,47.24l-1,163.58a2.37,2.37,0,0,1-2.37,2.37H434.6a2.37,2.37,0,0,1-2.37-2.37v-6a2.36,2.36,0,0,0-3.78-1.89q-15.4,11.58-36,11.59-45.3,0-45.29-44.64V331.5q0-33.87,39.42-45l43.88-12.22a2.38,2.38,0,0,0,1.74-2.29l1-52.72q-.33-13.37-7.49-19.55t-28.84-6.19a119.52,119.52,0,0,0-36.8,5.46A2.35,2.35,0,0,1,357,196.8V180a2.4,2.4,0,0,1,1.66-2.29Q376.62,172.07,400,172.07Zm-30.3,160.41v9.78q0,13,6.19,19.22t23.46,6.19q16.76,0,31.67-12a2.43,2.43,0,0,0,.91-1.89V297.17a2.38,2.38,0,0,0-3-2.29l-34.12,9.58q-14.67,4.25-19.88,10.43T369.67,332.48Z"/></g></g></svg>