<svg xmlns="http://www.w3.org/2000/svg" viewBox="0 0 399.27 518.51"><defs><style>.cls-1{fill:#fff;}</style></defs><title>logoblanco</title><g id="Capa_2" data-name="Capa 2"><g id="Capa_1-2" data-name="Capa 1"><path class="cls-1" d="M226.5,370.32q0-12.19-12.37-12.2a40,40,0,0,0-16.49,4,1.24,1.24,0,0,0-.72,1.12l.08,83.18a1.22,1.22,0,0,0,1.22,1.21H211q15.54,0,15.55-14.87Z"/><path class="cls-1" d="M167.21,387q0-15.36-15.19-15.36T136.83,387v45.74q0,15.53,15.19,15.52t15.19-15.52Z"/><path class="cls-1" d="M377.49,355.94a2,2,0,0,0-.62.13,6.27,6.27,0,0,0-4.46-2.36,53.47,53.47,0,0,0-11.23-25c-2.15-2.63-5.43-4.61-7.36-7.28-6.12-8.47-2.45-9.91-1-17.26,1.24-6.4.73-13.24-.38-19.61A71,71,0,0,0,345,263.72q.66-11.55,1-23.11a156.21,156.21,0,0,0,16.8-7.86c8.86-4.75,13.27-12.85,9.86-22.89-4-11.9-14.42-18.78-26.47-24.09-.06-5.25-.17-10.5-.4-15.75-.53-12.14-2.16-24.07-3.26-36.1a1.7,1.7,0,0,0,.45-3.06l3.22-2.79a27.28,27.28,0,0,0,3.61.18,37.74,37.74,0,0,0,6.2-.34,23.63,23.63,0,0,0,7.51-2.39,18.71,18.71,0,0,0,9.83-14.76c1.48-14.52-14.26-22.23-26.68-24.73l.48-12.29c.09-2.47-3.93-2.48-3.84,0l.45,11.78c-13.15-1.84-33.26,5.32-28.33,22.26,3,10.25,13.46,17.75,24,19.12a4.68,4.68,0,0,0-.21,4.72c-1,12-2.77,23.84-3.34,35.91-.22,4.64-.34,9.29-.42,13.94-10.36-3.84-20.91-7.3-29.09-12.25-4.26-10.55-6.65-18.66-7.61-30.26-1-12.34-3.12-22.93-14-30.17a20.33,20.33,0,0,0-4.32-2.17c1.71-14.4-1.34-30.15-2-44.31-.84-18.51-1-37-1.09-55.57a1.2,1.2,0,0,0-2.4,0c-.46,18.53-.83,37.06-1.54,55.57-.53,13.74-3.17,29.19-1.36,43.24a17.44,17.44,0,0,0-11.91,6.4c-3.29,4-4.4,9.09-4.88,14.17-.33,3.54,0,7.07,0,10.61a42.09,42.09,0,0,1-.65,8.6c0,3.94-1.77,4.42-5.34,1.55,1.47-7.53,3.94-15.06,3.77-22.71-.18-8.19-2-16.77-3.59-24.79A282,282,0,0,0,233,45.9c-2.28-5.58-22.62-54.15-33.76-44.68C189.53,5.37,185.61,13,182.08,23c-6.69,19-11.4,38.87-16,58.41q-3.4,14.31-6.62,28.68c-2.14,9.49-1.93,21.11-10.78,26.66-11.95,7.49-13.67,13.82-16.11,28.18q-2.4,14.1-4.32,28.27c-1.08,8-.78,16-5.29,21.86a2.61,2.61,0,0,0-.58-.52c-8.11-5.19-21.59-11.75-29.55-3-3.45,3.81-4,9.09-4.78,13.93-.76,5-1.74,9.93-2.91,14.84-8.33,2-16.79,3.38-25.28,4.63-.33-20-1-39.93-1.88-59.85,11-1.07,27.29-5.1,27.38-19.22,0-6.09-4.2-12.22-8.73-15.95-5.73-4.71-10.77-5.08-17.83-5.3a67.11,67.11,0,0,0,2.09-10c.56-3.93-5.09-4.72-5.39-.73a64.81,64.81,0,0,0-.08,10.79c-6.6.4-14.31,2.69-19.43,7.21A7.57,7.57,0,0,0,32.44,156a15.17,15.17,0,0,0-1.93,5.25c-.8,4.86,1.25,8.38,5,11.32a53.37,53.37,0,0,0,18.73,9.31c-.92,21.34-1.69,42.73-2,64.13-6.69,1-13.37,2-20,3.38-11.55,2.37-30,5-32.06,19.6-2,14.8,12.85,15.34,23.48,15.41,9.42.07,19.16-.55,28.56.91q.23,14.61.88,29.2c-.62,1.08-1.25,2.16-1.89,3.23a5.56,5.56,0,0,0-.79,3.29c-6.51-1.07-13.23,2.57-17,8.72-3,5-4.2,10.78-4.95,16.45a69.3,69.3,0,0,0-.7,15.12c-6.1.08-12.61.37-17.91.79A3.7,3.7,0,0,0,6.71,364a10.43,10.43,0,0,0-1.09,6.66C17,518.51,145.28,518.51,202.36,518.51c63.15,0,178.45-8.37,196.47-145.36h0a10.1,10.1,0,0,0,.38-1.94C400.32,358.34,387,355.48,377.49,355.94Zm-95-67.38q0-8,4.58-12t15-4a42.87,42.87,0,0,1,11.84,1.68,1.23,1.23,0,0,1,.87,1.17v5a1.2,1.2,0,0,1-1.57,1.13,37.73,37.73,0,0,0-11-1.54q-6.89,0-9.28,2t-2.4,6.7v3a9.34,9.34,0,0,0,1.43,5.61,13.12,13.12,0,0,0,5.32,3.67l9.85,4.8q10.31,5.06,10.31,14v3.1q0,16-20.73,16a47.93,47.93,0,0,1-12.87-1.58,1.2,1.2,0,0,1-.87-1.17v-5a1.2,1.2,0,0,1,1.56-1.14,41.41,41.41,0,0,0,11.66,1.56q7.28,0,10.2-2.23a7.81,7.81,0,0,0,2.92-6.59v-2.29a7.55,7.55,0,0,0-1.49-5,18.13,18.13,0,0,0-5.84-3.84L292.14,307q-9.61-4.58-9.62-14.54Zm-43.14,2.18q0-8.13,4.63-13t14-4.86q9.39,0,13.91,4.86t4.53,13v18.72a1.21,1.21,0,0,1-1.21,1.2H248.59a1.21,1.21,0,0,0-1.2,1.21v10.36q0,5.14,3.21,7.67t10,2.52A50,50,0,0,0,273,330.77a1.2,1.2,0,0,1,1.51,1.15V337a1.2,1.2,0,0,1-.86,1.17,46.22,46.22,0,0,1-12.77,1.57q-21.52,0-21.52-17.18Zm19,64q0,7.7-7.27,7.69t-7.27-7.69q0-7.69,7.27-7.69T258.42,354.78ZM170,274.42a1.2,1.2,0,0,1,1.2-1.2h5.38a1.21,1.21,0,0,1,1.21,1.2,1.21,1.21,0,0,0,1.65,1.12A33.38,33.38,0,0,1,191.15,273c4.81,0,8.56,1.34,11.28,4a1.2,1.2,0,0,0,1.44.21A30.1,30.1,0,0,1,218.75,273q7.78,0,11.91,3.95t4.12,11.17v49.06a1.21,1.21,0,0,1-1.2,1.21h-5.84a1.21,1.21,0,0,1-1.2-1.21v-47a9.48,9.48,0,0,0-10.15-9.53,23.8,23.8,0,0,0-9.78,3.22,1.21,1.21,0,0,0-.58,1.28,17,17,0,0,1,.35,3.78v48.26a1.2,1.2,0,0,1-1.2,1.21h-5.72a1.21,1.21,0,0,1-1.21-1.21V288.91q0-8.36-8.47-8.36a26.93,26.93,0,0,0-11,2.64,1.25,1.25,0,0,0-.72,1.12v52.86a1.21,1.21,0,0,1-1.2,1.21h-5.73a1.21,1.21,0,0,1-1.2-1.21Zm-4.59,14.83v47.92a1.21,1.21,0,0,1-1.21,1.21h-5.38a1.21,1.21,0,0,1-1.2-1.21v-1a1.2,1.2,0,0,0-1.89-1,20.54,20.54,0,0,1-12.08,3.66q-15.92,0-15.92-15.68v-3.67q0-11.91,13.86-15.8l15.15-4.22a1.21,1.21,0,0,0,.88-1.16v-9.05q-.12-4.69-2.63-6.87t-10.14-2.18A42.19,42.19,0,0,0,132.37,282a1.2,1.2,0,0,1-1.57-1.13v-5.12a1.22,1.22,0,0,1,.84-1.17,48.87,48.87,0,0,1,14.27-1.9Q165.38,272.65,165.38,289.25ZM90.76,265.38q5.2-4.53,16.09-4.53a48.48,48.48,0,0,1,13,1.7,1.21,1.21,0,0,1,.89,1.17V269a1.2,1.2,0,0,1-1.54,1.14,45,45,0,0,0-12.32-1.71q-7.09,0-10.13,2.46c-2,1.64-3,4.11-3,7.39v44.08q0,9.29,11,9.28,6.64,0,9.8-2a1.19,1.19,0,0,0,.51-1V301.79a1.2,1.2,0,0,1,1.2-1.2h5.73a1.2,1.2,0,0,1,1.2,1.2v31.85a1.21,1.21,0,0,1-.64,1.08A35.55,35.55,0,0,1,105.36,339q-19.81,0-19.81-16.26V277.8Q85.55,269.9,90.76,265.38ZM117.7,456.11h-9.48a1.2,1.2,0,0,1-1.2-1.2V356.76a1.21,1.21,0,0,0-1.21-1.21H86.75a1.2,1.2,0,0,1-1.2-1.2v-8a1.2,1.2,0,0,1,1.2-1.2h52.42a1.2,1.2,0,0,1,1.2,1.2v8a1.2,1.2,0,0,1-1.2,1.2H120.11a1.21,1.21,0,0,0-1.2,1.21v98.15A1.2,1.2,0,0,1,117.7,456.11Zm54.47-4.54q-6.61,6.94-20.15,6.94t-20.15-6.94q-6.6-6.93-6.6-18.66V386.84q0-11.71,6.6-18.66T152,361.25q13.54,0,20.15,6.93t6.6,18.66v46.07Q178.77,444.64,172.17,451.57Zm59.68.34q-6.76,6.6-18,6.6H198.22a1.22,1.22,0,0,0-1.22,1.22V482.2a1.22,1.22,0,0,1-1.22,1.21h-9.43a1.22,1.22,0,0,1-1.22-1.21l-.08-133.56a1.22,1.22,0,0,1,1.22-1.22h8.93a1.22,1.22,0,0,1,1.21,1.22v1.48a1.22,1.22,0,0,0,1.69,1.11A50.62,50.62,0,0,1,217,347.09q9.35,0,15.46,5.77t6.1,16.29l.08,64.45Q238.62,445.3,231.85,451.91Zm24,7.27h-9.43a1.22,1.22,0,0,1-1.22-1.22V375.05a1.22,1.22,0,0,1,1.22-1.22h9.43a1.22,1.22,0,0,1,1.22,1.22V458A1.22,1.22,0,0,1,255.86,459.18Zm61.59-.67h-8.93a1.22,1.22,0,0,1-1.22-1.22V454.2a1.2,1.2,0,0,0-1.93-1,29.84,29.84,0,0,1-18.46,5.95q-23.24,0-23.23-22.9v-5.35q0-17.39,20.22-23.07l22.51-6.27a1.22,1.22,0,0,0,.89-1.17l.5-27.05q-.17-6.86-3.84-10c-2.45-2.12-7.39-3.18-14.79-3.18a61.61,61.61,0,0,0-18.89,2.8,1.2,1.2,0,0,1-1.59-1.14V353.2a1.22,1.22,0,0,1,.85-1.17,70.92,70.92,0,0,1,21.21-2.9q28.42,0,28.42,24.24l-.5,83.92A1.22,1.22,0,0,1,317.45,458.51Z"/><path class="cls-1" d="M305.59,412.14l-17.51,4.91c-5,1.45-8.42,3.24-10.2,5.35s-2.67,5.13-2.67,9v5q0,6.69,3.18,9.87t12,3.17q8.59,0,16.25-6.14a1.25,1.25,0,0,0,.47-1V413.31A1.22,1.22,0,0,0,305.59,412.14Z"/><path class="cls-1" d="M248.59,303.91h18.9a1.21,1.21,0,0,0,1.2-1.21v-12Q268.69,280,258,280t-10.65,10.76v12A1.21,1.21,0,0,0,248.59,303.91Z"/><path class="cls-1" d="M156,306.74,144.42,310q-5.14,1.49-7,3.66a9.29,9.29,0,0,0-1.84,6.18v3.44c0,3.05.73,5.31,2.18,6.76s4.2,2.17,8.25,2.17a17.41,17.41,0,0,0,11-4.09,1.21,1.21,0,0,0,.47-1V307.9A1.21,1.21,0,0,0,156,306.74Z"/></g></g></svg>